<svg xmlns="http://www.w3.org/2000/svg" width="100" height="120" viewBox="51.237 47.251 300.749 420.678" xml:space="preserve">
 <g transform="translate(201.61 257.59)">
  <radialGradient id="a" gradientUnits="userSpaceOnUse" gradientTransform="translate(-150.37 -210.34)" cx="150.374" cy="210.339" r="190" fx="250.374" fy="310.339">
   <stop offset="0%" style="stop-color:rgb(240, 240, 200);stop-opacity:1" />
   <stop offset="90%" style="stop-color:rgb(245, 240, 215);stop-opacity:0.7" />
   <stop offset="100%" style="stop-color:rgb(250, 240, 230);stop-opacity:0.5" />
  </radialGradient>
  <path style="stroke:#000;stroke-width:0;stroke-dasharray:none;stroke-linecap:butt;stroke-dashoffset:0;stroke-linejoin:miter;stroke-miterlimit:4;fill:url(#a);fill-rule:nonzero;opacity:1" vector-effect="non-scaling-stroke" d="M53.152-185.494c-9.78 2.445-21.179-26.152-28.076-24.798-7.505 1.473-21.952 12.833-29.663 15.674-5.316 1.958 21.576 103.156 16.312 104.437C7.213-89.084-9.48-192.557-13.155-190.79c-16.18 7.784-45.576 22.27-45.576 22.27L-.534-83.566a.945.945 0 0 1-1.49 1.157l-66.737-76.08-9.42 6.54a104.044 104.044 0 0 0-42.975 66.517l-1.618 8.734 103.733 9.492a.657.657 0 0 1-.06 1.31h-103.673L-137.24-40.67a99.115 99.115 0 0 0-13.107 51.628l.567 24.227 96.59-38.528a1.347 1.347 0 0 1 1.074 2.47l-97.664 46.089 2.757 11.4a98.907 98.907 0 0 0 36.595 55.73l79.1-78.54a1.438 1.438 0 0 1 2.094 1.969l-71.935 81.971 1.623 1.318a165.22 165.22 0 0 0 70.136 33.405L.862 23.637a.18.18 0 0 1 .35.077l-38.338 186.625h7.716L4.343 26.423a.758.758 0 0 1 1.498.223L-8.576 152.47l10.081 1.875a127.73 127.73 0 0 0 46.213.095l10.835-1.97-32.39-120.967a.768.768 0 0 1 1.468-.452l41.725 119.875 23.48-13.599a63.241 63.241 0 0 0 24.37-25.462l14.65-28.068L35.829-5.562a.626.626 0 0 1 .825-.942l97.517 80.269 2.53-4.163a93.364 93.364 0 0 0 13.582-48l.091-17.281-93.832-26.39a1.521 1.521 0 0 1 .677-2.963L148.83-8.797l-7.777-51.537-13.056-49.543L54.31-66.254a.796.796 0 0 1-.85-1.344l70.847-47.915-33.884-41.322c-6.609-7.09-25.643-16.237-33.338-22.13-5.747-4.403-22.072 87.56-28.322 83.908l23.618-91.209" />
 </g>
</svg>